<mxfile host="app.diagrams.net" modified="2023-06-01T04:36:22.962Z" agent="Mozilla/5.0 (Windows NT 10.0; Win64; x64) AppleWebKit/537.36 (KHTML, like Gecko) Chrome/113.0.0.0 Safari/537.36" etag="zLiKE-UR-gRm-1e3XvyF" version="21.3.6" type="device">
  <diagram name="Page-1" id="m6RUpdapfUIl_f9RqWtG">
    <mxGraphModel dx="1000" dy="588" grid="0" gridSize="10" guides="1" tooltips="1" connect="1" arrows="1" fold="1" page="1" pageScale="1" pageWidth="850" pageHeight="1100" math="0" shadow="0">
      <root>
        <mxCell id="0" />
        <mxCell id="1" parent="0" />
        <mxCell id="yuOcrPWKac-Wj8_y73QF-1" value="" style="outlineConnect=0;dashed=0;verticalLabelPosition=bottom;verticalAlign=top;align=center;html=1;shape=mxgraph.aws3.elastic_beanstalk;fillColor=#F58534;gradientColor=none;" parent="1" vertex="1">
          <mxGeometry x="450" y="82.5" width="67.5" height="93" as="geometry" />
        </mxCell>
        <mxCell id="EYdgKHng-sNIyttCStdA-6" style="edgeStyle=orthogonalEdgeStyle;rounded=0;orthogonalLoop=1;jettySize=auto;html=1;" edge="1" parent="1" source="yuOcrPWKac-Wj8_y73QF-2">
          <mxGeometry relative="1" as="geometry">
            <mxPoint x="524" y="404" as="targetPoint" />
            <Array as="points">
              <mxPoint x="524" y="446" />
            </Array>
          </mxGeometry>
        </mxCell>
        <mxCell id="yuOcrPWKac-Wj8_y73QF-2" value="" style="sketch=0;points=[[0,0,0],[0.25,0,0],[0.5,0,0],[0.75,0,0],[1,0,0],[0,1,0],[0.25,1,0],[0.5,1,0],[0.75,1,0],[1,1,0],[0,0.25,0],[0,0.5,0],[0,0.75,0],[1,0.25,0],[1,0.5,0],[1,0.75,0]];outlineConnect=0;fontColor=#232F3E;gradientColor=#F54749;gradientDirection=north;fillColor=#C7131F;strokeColor=#ffffff;dashed=0;verticalLabelPosition=bottom;verticalAlign=top;align=center;html=1;fontSize=12;fontStyle=0;aspect=fixed;shape=mxgraph.aws4.resourceIcon;resIcon=mxgraph.aws4.amplify;" parent="1" vertex="1">
          <mxGeometry x="318.5" y="420" width="78" height="78" as="geometry" />
        </mxCell>
        <mxCell id="yuOcrPWKac-Wj8_y73QF-3" value="" style="dashed=0;outlineConnect=0;html=1;align=center;labelPosition=center;verticalLabelPosition=bottom;verticalAlign=top;shape=mxgraph.weblogos.github" parent="1" vertex="1">
          <mxGeometry x="138.5" y="423" width="75" height="75" as="geometry" />
        </mxCell>
        <mxCell id="yuOcrPWKac-Wj8_y73QF-4" value="" style="sketch=0;points=[[0,0,0],[0.25,0,0],[0.5,0,0],[0.75,0,0],[1,0,0],[0,1,0],[0.25,1,0],[0.5,1,0],[0.75,1,0],[1,1,0],[0,0.25,0],[0,0.5,0],[0,0.75,0],[1,0.25,0],[1,0.5,0],[1,0.75,0]];outlineConnect=0;fontColor=#232F3E;gradientColor=#F78E04;gradientDirection=north;fillColor=#D05C17;strokeColor=#ffffff;dashed=0;verticalLabelPosition=bottom;verticalAlign=top;align=center;html=1;fontSize=12;fontStyle=0;aspect=fixed;shape=mxgraph.aws4.resourceIcon;resIcon=mxgraph.aws4.ecr;" parent="1" vertex="1">
          <mxGeometry x="290" y="90" width="78" height="78" as="geometry" />
        </mxCell>
        <mxCell id="yuOcrPWKac-Wj8_y73QF-5" value="" style="sketch=0;outlineConnect=0;fontColor=#232F3E;gradientColor=none;fillColor=#2E27AD;strokeColor=none;dashed=0;verticalLabelPosition=bottom;verticalAlign=top;align=center;html=1;fontSize=12;fontStyle=0;aspect=fixed;pointerEvents=1;shape=mxgraph.aws4.rds_postgresql_instance;" parent="1" vertex="1">
          <mxGeometry x="620" y="90" width="78" height="78" as="geometry" />
        </mxCell>
        <mxCell id="yuOcrPWKac-Wj8_y73QF-6" value="" style="dashed=0;outlineConnect=0;html=1;align=center;labelPosition=center;verticalLabelPosition=bottom;verticalAlign=top;shape=mxgraph.weblogos.github" parent="1" vertex="1">
          <mxGeometry x="130" y="91.5" width="75" height="75" as="geometry" />
        </mxCell>
        <mxCell id="yuOcrPWKac-Wj8_y73QF-7" value="" style="edgeStyle=orthogonalEdgeStyle;html=1;endArrow=block;elbow=vertical;startArrow=none;endFill=1;strokeColor=#545B64;rounded=0;" parent="1" edge="1">
          <mxGeometry width="100" relative="1" as="geometry">
            <mxPoint x="205" y="128.5" as="sourcePoint" />
            <mxPoint x="290" y="129" as="targetPoint" />
          </mxGeometry>
        </mxCell>
        <mxCell id="yuOcrPWKac-Wj8_y73QF-8" value="" style="edgeStyle=orthogonalEdgeStyle;html=1;endArrow=block;elbow=vertical;startArrow=none;endFill=1;strokeColor=#545B64;rounded=0;" parent="1" edge="1">
          <mxGeometry width="100" relative="1" as="geometry">
            <mxPoint x="368" y="128.5" as="sourcePoint" />
            <mxPoint x="453" y="129" as="targetPoint" />
          </mxGeometry>
        </mxCell>
        <mxCell id="yuOcrPWKac-Wj8_y73QF-9" value="" style="edgeStyle=orthogonalEdgeStyle;html=1;endArrow=block;elbow=vertical;startArrow=none;endFill=1;strokeColor=#545B64;rounded=0;" parent="1" edge="1">
          <mxGeometry width="100" relative="1" as="geometry">
            <mxPoint x="517.5" y="128.5" as="sourcePoint" />
            <mxPoint x="602.5" y="129" as="targetPoint" />
          </mxGeometry>
        </mxCell>
        <mxCell id="yuOcrPWKac-Wj8_y73QF-10" value="" style="edgeStyle=orthogonalEdgeStyle;html=1;endArrow=block;elbow=vertical;startArrow=none;endFill=1;strokeColor=#545B64;rounded=0;" parent="1" edge="1">
          <mxGeometry width="100" relative="1" as="geometry">
            <mxPoint x="218.5" y="460" as="sourcePoint" />
            <mxPoint x="318.5" y="460" as="targetPoint" />
          </mxGeometry>
        </mxCell>
        <mxCell id="yuOcrPWKac-Wj8_y73QF-14" value="" style="verticalLabelPosition=bottom;html=1;verticalAlign=top;align=center;strokeColor=none;fillColor=#00BEF2;shape=mxgraph.azure.visual_studio_online;" parent="1" vertex="1">
          <mxGeometry x="40" y="220" width="50" height="37.5" as="geometry" />
        </mxCell>
        <mxCell id="yuOcrPWKac-Wj8_y73QF-15" value="" style="edgeStyle=orthogonalEdgeStyle;html=1;endArrow=block;elbow=vertical;startArrow=none;endFill=1;strokeColor=#545B64;rounded=0;exitX=1;exitY=0.5;exitDx=0;exitDy=0;exitPerimeter=0;" parent="1" source="yuOcrPWKac-Wj8_y73QF-14" target="yuOcrPWKac-Wj8_y73QF-6" edge="1">
          <mxGeometry width="100" relative="1" as="geometry">
            <mxPoint x="50" y="180" as="sourcePoint" />
            <mxPoint x="170" y="200" as="targetPoint" />
            <Array as="points">
              <mxPoint x="160" y="239" />
            </Array>
          </mxGeometry>
        </mxCell>
        <mxCell id="yuOcrPWKac-Wj8_y73QF-16" value="" style="edgeStyle=orthogonalEdgeStyle;html=1;endArrow=block;elbow=vertical;startArrow=none;endFill=1;strokeColor=#545B64;rounded=0;" parent="1" target="yuOcrPWKac-Wj8_y73QF-3" edge="1">
          <mxGeometry width="100" relative="1" as="geometry">
            <mxPoint x="90" y="240" as="sourcePoint" />
            <mxPoint x="180" y="238.25" as="targetPoint" />
            <Array as="points">
              <mxPoint x="90" y="238" />
              <mxPoint x="160" y="238" />
            </Array>
          </mxGeometry>
        </mxCell>
        <mxCell id="yuOcrPWKac-Wj8_y73QF-17" value="&lt;h4&gt;&lt;font style=&quot;font-size: 12px;&quot;&gt;VS code (local IDE)&lt;/font&gt;&lt;/h4&gt;" style="text;strokeColor=none;align=center;fillColor=none;html=1;verticalAlign=middle;whiteSpace=wrap;rounded=0;" parent="1" vertex="1">
          <mxGeometry x="35" y="270" width="75" height="30" as="geometry" />
        </mxCell>
        <mxCell id="yuOcrPWKac-Wj8_y73QF-19" value="&lt;h4&gt;GitHub Backend Repo&lt;/h4&gt;" style="text;strokeColor=none;align=center;fillColor=none;html=1;verticalAlign=middle;whiteSpace=wrap;rounded=0;" parent="1" vertex="1">
          <mxGeometry x="110" y="52.5" width="110" height="30" as="geometry" />
        </mxCell>
        <mxCell id="yuOcrPWKac-Wj8_y73QF-22" value="&lt;h4&gt;GitHub Frontend Repo&lt;/h4&gt;" style="text;strokeColor=none;align=center;fillColor=none;html=1;verticalAlign=middle;whiteSpace=wrap;rounded=0;" parent="1" vertex="1">
          <mxGeometry x="120" y="507" width="110" height="30" as="geometry" />
        </mxCell>
        <mxCell id="yuOcrPWKac-Wj8_y73QF-23" value="&lt;h4&gt;AWS Amplify&lt;/h4&gt;" style="text;strokeColor=none;align=center;fillColor=none;html=1;verticalAlign=middle;whiteSpace=wrap;rounded=0;" parent="1" vertex="1">
          <mxGeometry x="302.5" y="504" width="110" height="30" as="geometry" />
        </mxCell>
        <mxCell id="yuOcrPWKac-Wj8_y73QF-24" value="" style="sketch=0;points=[[0,0,0],[0.25,0,0],[0.5,0,0],[0.75,0,0],[1,0,0],[0,1,0],[0.25,1,0],[0.5,1,0],[0.75,1,0],[1,1,0],[0,0.25,0],[0,0.5,0],[0,0.75,0],[1,0.25,0],[1,0.5,0],[1,0.75,0]];outlineConnect=0;fontColor=#232F3E;gradientColor=#945DF2;gradientDirection=north;fillColor=#5A30B5;strokeColor=#ffffff;dashed=0;verticalLabelPosition=bottom;verticalAlign=top;align=center;html=1;fontSize=12;fontStyle=0;aspect=fixed;shape=mxgraph.aws4.resourceIcon;resIcon=mxgraph.aws4.route_53;" parent="1" vertex="1">
          <mxGeometry x="498.5" y="463" width="44" height="44" as="geometry" />
        </mxCell>
        <mxCell id="yuOcrPWKac-Wj8_y73QF-25" value="" style="edgeStyle=orthogonalEdgeStyle;html=1;endArrow=block;elbow=vertical;startArrow=none;endFill=1;strokeColor=#545B64;rounded=0;" parent="1" edge="1">
          <mxGeometry width="100" relative="1" as="geometry">
            <mxPoint x="396.5" y="483" as="sourcePoint" />
            <mxPoint x="496.5" y="483" as="targetPoint" />
          </mxGeometry>
        </mxCell>
        <mxCell id="yuOcrPWKac-Wj8_y73QF-28" value="&lt;h4&gt;AWS Route 53&lt;/h4&gt;" style="text;strokeColor=none;align=center;fillColor=none;html=1;verticalAlign=middle;whiteSpace=wrap;rounded=0;" parent="1" vertex="1">
          <mxGeometry x="472" y="513" width="110" height="30" as="geometry" />
        </mxCell>
        <mxCell id="yuOcrPWKac-Wj8_y73QF-29" value="&lt;h4&gt;AWS Elastic Container Registry&lt;/h4&gt;" style="text;strokeColor=none;align=center;fillColor=none;html=1;verticalAlign=middle;whiteSpace=wrap;rounded=0;" parent="1" vertex="1">
          <mxGeometry x="276" y="175.5" width="110" height="30" as="geometry" />
        </mxCell>
        <mxCell id="yuOcrPWKac-Wj8_y73QF-30" value="&lt;h4&gt;AWS Elastic Beanstalk&lt;/h4&gt;" style="text;strokeColor=none;align=center;fillColor=none;html=1;verticalAlign=middle;whiteSpace=wrap;rounded=0;" parent="1" vertex="1">
          <mxGeometry x="431" y="40" width="110" height="30" as="geometry" />
        </mxCell>
        <mxCell id="yuOcrPWKac-Wj8_y73QF-31" value="&lt;h4&gt;AWS RDS&lt;/h4&gt;" style="text;strokeColor=none;align=center;fillColor=none;html=1;verticalAlign=middle;whiteSpace=wrap;rounded=0;" parent="1" vertex="1">
          <mxGeometry x="598" y="57" width="110" height="30" as="geometry" />
        </mxCell>
        <mxCell id="KUeNhtuYGyXCRCj61isg-1" value="pushed to" style="text;strokeColor=none;align=center;fillColor=none;html=1;verticalAlign=middle;whiteSpace=wrap;rounded=0;" parent="1" vertex="1">
          <mxGeometry x="100" y="200" width="60" height="30" as="geometry" />
        </mxCell>
        <mxCell id="KUeNhtuYGyXCRCj61isg-2" value="auto deployed to" style="text;strokeColor=none;align=center;fillColor=none;html=1;verticalAlign=middle;whiteSpace=wrap;rounded=0;" parent="1" vertex="1">
          <mxGeometry x="230" y="423" width="68.5" height="30" as="geometry" />
        </mxCell>
        <mxCell id="KUeNhtuYGyXCRCj61isg-3" value="contained &amp;amp; pushed to" style="text;strokeColor=none;align=center;fillColor=none;html=1;verticalAlign=middle;whiteSpace=wrap;rounded=0;" parent="1" vertex="1">
          <mxGeometry x="210" y="136.5" width="70" height="30" as="geometry" />
        </mxCell>
        <mxCell id="KUeNhtuYGyXCRCj61isg-4" value="auto deployed to" style="text;strokeColor=none;align=center;fillColor=none;html=1;verticalAlign=middle;whiteSpace=wrap;rounded=0;" parent="1" vertex="1">
          <mxGeometry x="381.5" y="90" width="68.5" height="30" as="geometry" />
        </mxCell>
        <mxCell id="KUeNhtuYGyXCRCj61isg-5" value="migrate and CRUD to" style="text;strokeColor=none;align=center;fillColor=none;html=1;verticalAlign=middle;whiteSpace=wrap;rounded=0;" parent="1" vertex="1">
          <mxGeometry x="520" y="138" width="68.5" height="30" as="geometry" />
        </mxCell>
        <mxCell id="EYdgKHng-sNIyttCStdA-2" value="gets domain from" style="text;strokeColor=none;align=center;fillColor=none;html=1;verticalAlign=middle;whiteSpace=wrap;rounded=0;" vertex="1" parent="1">
          <mxGeometry x="418.5" y="493" width="68.5" height="30" as="geometry" />
        </mxCell>
        <mxCell id="EYdgKHng-sNIyttCStdA-4" value="" style="sketch=0;points=[[0,0,0],[0.25,0,0],[0.5,0,0],[0.75,0,0],[1,0,0],[0,1,0],[0.25,1,0],[0.5,1,0],[0.75,1,0],[1,1,0],[0,0.25,0],[0,0.5,0],[0,0.75,0],[1,0.25,0],[1,0.5,0],[1,0.75,0]];outlineConnect=0;fontColor=#232F3E;gradientColor=#F54749;gradientDirection=north;fillColor=#C7131F;strokeColor=#ffffff;dashed=0;verticalLabelPosition=bottom;verticalAlign=top;align=center;html=1;fontSize=12;fontStyle=0;aspect=fixed;shape=mxgraph.aws4.resourceIcon;resIcon=mxgraph.aws4.certificate_manager_3;" vertex="1" parent="1">
          <mxGeometry x="543" y="287" width="63" height="63" as="geometry" />
        </mxCell>
        <mxCell id="EYdgKHng-sNIyttCStdA-16" style="edgeStyle=orthogonalEdgeStyle;rounded=0;orthogonalLoop=1;jettySize=auto;html=1;" edge="1" parent="1" source="EYdgKHng-sNIyttCStdA-7" target="yuOcrPWKac-Wj8_y73QF-1">
          <mxGeometry relative="1" as="geometry" />
        </mxCell>
        <mxCell id="EYdgKHng-sNIyttCStdA-7" value="" style="whiteSpace=wrap;html=1;fillColor=none;" vertex="1" parent="1">
          <mxGeometry x="396.5" y="278" width="248" height="117.5" as="geometry" />
        </mxCell>
        <mxCell id="EYdgKHng-sNIyttCStdA-9" value="&lt;h4&gt;AWS Application Load Balancer&lt;/h4&gt;" style="text;strokeColor=none;align=center;fillColor=none;html=1;verticalAlign=middle;whiteSpace=wrap;rounded=0;" vertex="1" parent="1">
          <mxGeometry x="414.5" y="358" width="110" height="30" as="geometry" />
        </mxCell>
        <mxCell id="EYdgKHng-sNIyttCStdA-11" value="" style="outlineConnect=0;dashed=0;verticalLabelPosition=bottom;verticalAlign=top;align=center;html=1;shape=mxgraph.aws3.application_load_balancer;fillColor=#F58534;gradientColor=none;" vertex="1" parent="1">
          <mxGeometry x="438" y="287" width="63" height="63" as="geometry" />
        </mxCell>
        <mxCell id="EYdgKHng-sNIyttCStdA-13" value="&lt;h4&gt;AWS Certificate Manager&lt;/h4&gt;" style="text;strokeColor=none;align=center;fillColor=none;html=1;verticalAlign=middle;whiteSpace=wrap;rounded=0;" vertex="1" parent="1">
          <mxGeometry x="524.5" y="358" width="110" height="30" as="geometry" />
        </mxCell>
        <mxCell id="EYdgKHng-sNIyttCStdA-17" value="gets custom https backend endpoint (https://api.songsite.net)&amp;nbsp;" style="text;whiteSpace=wrap;html=1;" vertex="1" parent="1">
          <mxGeometry x="534" y="406" width="184" height="39" as="geometry" />
        </mxCell>
        <mxCell id="EYdgKHng-sNIyttCStdA-18" value="route traffic to" style="text;strokeColor=none;align=center;fillColor=none;html=1;verticalAlign=middle;whiteSpace=wrap;rounded=0;" vertex="1" parent="1">
          <mxGeometry x="529.5" y="230" width="68.5" height="30" as="geometry" />
        </mxCell>
      </root>
    </mxGraphModel>
  </diagram>
</mxfile>
